<svg width="62" height="62" viewBox="0 0 62 62" fill="none" xmlns="http://www.w3.org/2000/svg">
<path d="M5.64938 16.8774C5.64938 10.6776 10.6753 5.65167 16.8751 5.65167H44.9393C51.1391 5.65167 56.1651 10.6776 56.1651 16.8774V44.9416C56.1651 51.1414 51.1391 56.1673 44.9393 56.1673H16.8751C10.6753 56.1673 5.64938 51.1414 5.64938 44.9416V16.8774Z" fill="#FAB4EB"/>
<path d="M19.6815 16.8774L56.1651 33.7159V44.9416C56.1651 51.1414 51.1391 56.1673 44.9394 56.1673H37.9233L19.6815 16.8774Z" fill="#003BE5" fill-opacity="0.34"/>
<path d="M11.6404 26.2405L27.008 10.8729L51.4096 35.2745L36.042 50.6421L11.6404 26.2405Z" fill="white"/>
<path d="M2.34792 53.8586C2.78802 54.2987 3.3782 54.4851 3.94773 54.4229C3.94773 54.4229 14.6957 54.4851 20.8049 48.6244C20.8825 48.5571 20.955 48.4847 21.0274 48.4121C23.2432 46.1963 23.2381 42.6084 21.0274 40.3977C18.8167 38.187 15.2289 38.1819 13.013 40.3977L2.34792 51.0628C1.57651 51.8344 1.57651 53.0872 2.34792 53.8586V53.8586Z" fill="white"/>
<path d="M12.2091 49.3203C12.354 50.2983 11.7745 51.711 10.6274 52.9184C10.2773 53.2806 9.91505 53.5945 9.54076 53.836" fill="white"/>
<path d="M7.16215 52.5078C7.06556 53.2081 6.72749 53.848 6.19623 54.3069Z" fill="white"/>
<path d="M29.025 16.4521C30.1227 15.3544 30.1227 13.5747 29.025 12.477C27.9273 11.3793 26.1476 11.3793 25.0499 12.477C23.9522 13.5747 23.9522 15.3544 25.0499 16.4521C26.1476 17.5498 27.9273 17.5498 29.025 16.4521Z" fill="#2FC18C"/>
<path d="M50.3338 37.232C51.4315 36.1343 51.4315 34.3546 50.3338 33.2569C49.2361 32.1593 47.4564 32.1593 46.3587 33.2569C45.261 34.3546 45.261 36.1343 46.3587 37.232C47.4564 38.3297 49.2361 38.3297 50.3338 37.232Z" fill="#2FC18C"/>
<path d="M16.819 28.6578C17.9167 27.5602 17.9167 25.7804 16.819 24.6828C15.7213 23.5851 13.9416 23.5851 12.8439 24.6828C11.7463 25.7804 11.7463 27.5602 12.8439 28.6578C13.9416 29.7555 15.7213 29.7555 16.819 28.6578Z" fill="#2FC18C"/>
<path d="M37.6594 49.4984C38.7571 48.4007 38.7571 46.621 37.6594 45.5233C36.5618 44.4256 34.7821 44.4256 33.6844 45.5233C32.5867 46.621 32.5867 48.4007 33.6844 49.4984C34.7821 50.5961 36.5618 50.5961 37.6594 49.4984Z" fill="#2FC18C"/>
<path d="M50.6522 34.6972L49.2264 36.123L25.8941 12.7906L27.3198 11.3648L50.6522 34.6972Z" fill="#2FC18C"/>
<path d="M36.4714 48.3092L35.0456 49.735L11.7133 26.4026L13.1391 24.9768L36.4714 48.3092Z" fill="#2FC18C"/>
<path d="M27.3321 10.7825L28.7745 12.2249L13.155 27.8444L11.7126 26.402L27.3321 10.7825Z" fill="#2FC18C"/>
<path d="M50.0703 33.5203L51.5127 34.9628L35.8933 50.5822L34.4508 49.1398L50.0703 33.5203Z" fill="#2FC18C"/>
<path d="M39.3927 38.4637C42.1 35.7564 40.7488 30.0156 36.3745 25.6414C32.0003 21.2671 26.2595 19.9158 23.5521 22.6232C20.8448 25.3305 22.1961 31.0713 26.5703 35.4455C30.9446 39.8198 36.6854 41.1711 39.3927 38.4637Z" fill="#2FC18C"/>
<path d="M43.6645 27.4683L28.1253 43.0075C28.0694 43.0634 28.008 43.1035 27.9409 43.1382C27.6678 43.2716 27.3163 43.2147 27.0799 42.9785L18.8384 34.7369C18.602 34.5005 18.5451 34.149 18.6786 33.8759C18.7133 33.809 18.7535 33.7475 18.8094 33.6916L34.3484 18.1523C34.4043 18.0964 34.4659 18.0563 34.5328 18.0216C34.8059 17.8882 35.1574 17.945 35.3938 18.1813L43.6353 26.4228C43.8718 26.6592 43.9286 27.0108 43.7951 27.2839C43.7604 27.3509 43.7204 27.4124 43.6645 27.4683Z" fill="#2FC18C"/>
<path fill-rule="evenodd" clip-rule="evenodd" d="M18.8094 33.6916C18.7535 33.7475 18.7133 33.809 18.6786 33.8759C18.5451 34.149 18.602 34.5005 18.8384 34.7369L27.0799 42.9785C27.3163 43.2147 27.6678 43.2716 27.9409 43.1382C28.008 43.1035 28.0694 43.0634 28.1253 43.0075L43.6645 27.4683C43.7204 27.4124 43.7604 27.3509 43.7951 27.2839C43.9286 27.0108 43.8718 26.6592 43.6353 26.4228L35.3938 18.1813C35.1574 17.945 34.8059 17.8882 34.5328 18.0216C34.4659 18.0563 34.4043 18.0964 34.3484 18.1523L18.8094 33.6916ZM34.8566 20.4223L21.0794 34.1997L27.6171 40.7374L41.3944 26.9602L34.8566 20.4223Z" fill="#036B52"/>
<path d="M54.5155 1.69098C54.9556 2.13108 55.142 2.72126 55.0798 3.29079C55.0798 3.29079 55.142 14.0387 49.2813 20.148C49.214 20.2256 49.1415 20.298 49.069 20.3706C46.8532 22.5864 43.2653 22.5812 41.0546 20.3706C38.8439 18.1598 38.8388 14.572 41.0546 12.3562L51.7198 1.69111C52.4913 0.919574 53.7441 0.919574 54.5155 1.69098V1.69098Z" fill="white"/>
<path d="M49.9771 11.5523C50.9551 11.6972 52.3678 11.1176 53.5752 9.97057C53.9374 9.62043 54.2513 9.25821 54.4928 8.88391" fill="white"/>
<path d="M53.1647 6.5053C53.865 6.40871 54.5049 6.07063 54.9637 5.53938Z" fill="white"/>
<path fill-rule="evenodd" clip-rule="evenodd" d="M12.244 39.6287C14.8852 36.9875 19.1616 36.9938 21.7965 39.6287C24.4312 42.2634 24.4377 46.5399 21.7965 49.1811L21.7906 49.1871C21.7271 49.2506 21.639 49.3389 21.5396 49.4267C18.2711 52.552 13.8318 54.0537 10.3066 54.7863C8.52641 55.1562 6.94488 55.3369 5.80684 55.4254C5.23715 55.4697 4.77681 55.491 4.45613 55.5012C4.29575 55.5063 4.17016 55.5086 4.08315 55.5097C4.05035 55.5101 4.02303 55.5103 4.00138 55.5104C3.13703 55.5863 2.24463 55.2934 1.57888 54.6276C0.38271 53.4314 0.382797 51.4901 1.57882 50.2939L12.244 39.6287ZM3.95402 53.3353L3.95712 53.3354L3.97551 53.3353C3.99278 53.3353 4.02 53.3351 4.0567 53.3347C4.13012 53.3338 4.24141 53.3317 4.38684 53.3271C4.67781 53.3178 5.10488 53.2982 5.63827 53.2567C6.70637 53.1737 8.19366 53.0037 9.86408 52.6566C13.2336 51.9564 17.213 50.5631 20.052 47.8395L20.0719 47.8204L20.0928 47.8023C20.136 47.7649 20.1813 47.7202 20.2577 47.6437C22.0482 45.8532 22.0449 42.9533 20.2584 41.1668C18.4717 39.3801 15.5725 39.3763 13.7821 41.1668L3.11702 51.8318C3.117 51.8318 3.11704 51.8318 3.11702 51.8318C2.77029 52.1787 2.77033 52.7429 3.11696 53.0895C3.31486 53.2874 3.57487 53.3696 3.82969 53.3418L3.89167 53.335L3.95402 53.3353Z" fill="#5D335A"/>
<path fill-rule="evenodd" clip-rule="evenodd" d="M40.6625 12.4816C38.0213 15.1228 38.0277 19.3992 40.6625 22.0341C43.2972 24.6688 47.5738 24.6753 50.215 22.0341L50.2209 22.0281C50.2845 21.9647 50.3728 21.8765 50.4605 21.7772C53.5858 18.5087 55.0876 14.0694 55.8201 10.5442C56.19 8.764 56.3708 7.18248 56.4592 6.04443C56.5035 5.47475 56.5248 5.0144 56.535 4.69373C56.5401 4.53334 56.5425 4.40776 56.5435 4.32075C56.5439 4.28795 56.5441 4.26063 56.5443 4.23898C56.6201 3.37462 56.3272 2.48223 55.6615 1.81648C54.4653 0.620305 52.5239 0.620392 51.3277 1.81642L40.6625 12.4816ZM54.3692 4.19162L54.3692 4.19472L54.3692 4.2131C54.3691 4.23037 54.369 4.25759 54.3685 4.2943C54.3676 4.36771 54.3656 4.479 54.361 4.62444C54.3517 4.91541 54.332 5.34247 54.2906 5.87586C54.2076 6.94397 54.0375 8.43126 53.6904 10.1017C52.9902 13.4712 51.5969 17.4506 48.8734 20.2896L48.8542 20.3095L48.8362 20.3304C48.7988 20.3736 48.7541 20.4189 48.6775 20.4953C46.8871 22.2858 43.9872 22.2825 42.2006 20.496C40.4139 18.7093 40.4101 15.8101 42.2006 14.0197L52.8657 3.35462C52.8657 3.3546 52.8656 3.35464 52.8657 3.35462C53.2125 3.00788 53.7768 3.00793 54.1234 3.35456C54.3213 3.55245 54.4034 3.81247 54.3756 4.06728L54.3688 4.12927L54.3692 4.19162Z" fill="#5D335A"/>
<path fill-rule="evenodd" clip-rule="evenodd" d="M5.49958 53.5137C5.92427 53.089 6.61289 53.0889 7.03766 53.5136L7.05013 53.5261C7.4749 53.9507 7.47496 54.6394 7.05027 55.0641C6.62559 55.4889 5.93697 55.489 5.5122 55.0643L5.49973 55.0518C5.07496 54.6271 5.07489 53.9385 5.49958 53.5137Z" fill="#5D335A"/>
<path fill-rule="evenodd" clip-rule="evenodd" d="M12.0497 48.2445C12.6439 48.1565 13.1969 48.5668 13.285 49.1609C13.3967 49.9151 13.2208 50.7235 12.9014 51.4641C12.5758 52.2189 12.0692 52.9798 11.4159 53.6675L11.4094 53.6743L11.4094 53.6743C11.0197 54.0774 10.5938 54.4509 10.1304 54.7499C9.62563 55.0755 8.95249 54.9304 8.62686 54.4256C8.30122 53.9209 8.44641 53.2478 8.95114 52.9221C9.23533 52.7388 9.53271 52.4856 9.84215 52.1659C10.3342 51.6471 10.6898 51.0993 10.9041 50.6026C11.125 50.0905 11.1664 49.7036 11.1333 49.4797C11.0452 48.8855 11.4556 48.3325 12.0497 48.2445Z" fill="#5D335A"/>
<path fill-rule="evenodd" clip-rule="evenodd" d="M7.31074 51.4304C7.90577 51.5125 8.32159 52.0614 8.23952 52.6564C8.10825 53.6082 7.64631 54.4915 6.90708 55.13C6.45249 55.5226 5.76571 55.4723 5.37311 55.0177C4.9805 54.5631 5.03076 53.8764 5.48535 53.4838C5.80864 53.2045 6.02284 52.8081 6.08475 52.3592C6.16682 51.7642 6.71572 51.3484 7.31074 51.4304Z" fill="#5D335A"/>
<path fill-rule="evenodd" clip-rule="evenodd" d="M27.079 12.7436C27.0322 12.6969 26.9563 12.6969 26.9095 12.7436L13.3354 26.3177C13.2886 26.3645 13.2886 26.4404 13.3354 26.4872L12.5664 27.2562L13.3354 26.4872L35.8085 48.9603C35.8552 49.0071 35.9311 49.0071 35.9779 48.9603L49.552 35.3861C49.5988 35.3393 49.5988 35.2634 49.552 35.2167L27.079 12.7436ZM25.3714 11.2055C26.2677 10.3093 27.7208 10.3093 28.617 11.2055L51.0901 33.6786C51.9863 34.5748 51.9863 36.028 51.0901 36.9242L37.516 50.4984C36.6197 51.3946 35.1666 51.3946 34.2704 50.4984L11.7973 28.0252C10.9011 27.129 10.9011 25.6759 11.7973 24.7797L25.3714 11.2055Z" fill="#5D335A"/>
<path fill-rule="evenodd" clip-rule="evenodd" d="M54.1705 4.84277C54.5952 4.41804 55.2838 4.41804 55.7086 4.84277L55.721 4.85524C56.1458 5.27997 56.1458 5.96859 55.721 6.39332C55.2963 6.81804 54.6077 6.81804 54.183 6.39332L54.1705 6.38085C53.7458 5.95612 53.7458 5.2675 54.1705 4.84277Z" fill="#5D335A"/>
<path fill-rule="evenodd" clip-rule="evenodd" d="M55.0823 7.97002C55.5871 8.29565 55.7323 8.96879 55.4066 9.47352C55.1077 9.93692 54.7341 10.3629 54.331 10.7525L54.3242 10.7591L54.3242 10.7591C53.6365 11.4123 52.8756 11.919 52.1208 12.2445C51.3802 12.564 50.5718 12.7398 49.8177 12.6281C49.2235 12.5401 48.8132 11.9871 48.9012 11.3929C48.9892 10.7987 49.5423 10.3884 50.1364 10.4764C50.3603 10.5096 50.7472 10.4681 51.2593 10.2472C51.7561 10.033 52.3039 9.67741 52.8226 9.18531C53.1423 8.87588 53.3955 8.57849 53.5788 8.2943C53.9045 7.78957 54.5776 7.64439 55.0823 7.97002Z" fill="#5D335A"/>
<path fill-rule="evenodd" clip-rule="evenodd" d="M55.6745 4.71626C56.1291 5.10886 56.1793 5.79565 55.7867 6.25024C55.1483 6.98946 54.2649 7.45141 53.3132 7.58268C52.7182 7.66475 52.1693 7.24892 52.0872 6.6539C52.0051 6.05888 52.421 5.50998 53.016 5.42791C53.4649 5.366 53.8613 5.1518 54.1405 4.8285C54.5331 4.37391 55.2199 4.32366 55.6745 4.71626Z" fill="#5D335A"/>
</svg>
