<svg width="205" height="35" viewBox="0 0 205 35" fill="none" xmlns="http://www.w3.org/2000/svg">
<path d="M15.3998 3.75598H8.24337L8.74853 2.59412V26.7574H6.67738V2.59412L7.28357 3.75598H0.0261536V1.92058H15.3998V3.75598Z" fill="#5D335A"/>
<path d="M17.7843 26.7574V8.8749H19.8722V14.1454L19.1313 13.9096C19.1987 13.3483 19.3615 12.7646 19.6197 12.1584C19.8891 11.541 20.2595 10.9629 20.731 10.424C21.2025 9.88521 21.7918 9.45302 22.499 9.12748C23.2175 8.7907 24.0706 8.62232 25.0585 8.62232C25.777 8.62232 26.3551 8.68406 26.7929 8.80754C27.2307 8.93103 27.5057 9.02644 27.618 9.0938L27.0455 11.1144C26.9332 11.0358 26.7031 10.9348 26.3551 10.8113C26.0071 10.6878 25.5075 10.6261 24.8564 10.6261C23.9135 10.6261 23.1221 10.8113 22.4822 11.1818C21.8423 11.541 21.3316 12.0125 20.9499 12.5962C20.5682 13.18 20.2932 13.803 20.1248 14.4653C19.9564 15.1164 19.8722 15.745 19.8722 16.3512V26.7574H17.7843Z" fill="#5D335A"/>
<path d="M31.2056 34.2338C30.7903 34.2338 30.4086 34.2057 30.0606 34.1496C29.7238 34.1047 29.5105 34.0598 29.4207 34.0149V32.1795C29.5667 32.2468 29.8024 32.3029 30.128 32.3478C30.4647 32.404 30.7847 32.432 31.0878 32.432C31.8623 32.432 32.5022 32.2524 33.0074 31.8932C33.5237 31.5452 33.9503 31.0793 34.2871 30.4956C34.6239 29.9119 34.9101 29.2832 35.1459 28.6097L35.7689 26.808L29.4881 8.8749H31.6771L37.0654 24.8884H36.7624L42.0833 8.8749H44.2218L37.4191 28.5087C37.0823 29.4853 36.6782 30.4114 36.2067 31.287C35.7352 32.1626 35.1066 32.8698 34.3208 33.4087C33.535 33.9587 32.4966 34.2338 31.2056 34.2338Z" fill="#5D335A"/>
<path d="M56.4892 27.0774C55.1197 27.0774 53.8512 26.7462 52.6837 26.0839C51.5163 25.4216 50.5733 24.5235 49.8549 23.3897C49.1476 22.2559 48.794 20.9818 48.794 19.5674C48.794 19.5337 48.794 19.5056 48.794 19.4832C48.794 19.4607 48.794 19.4383 48.794 19.4158L50.3432 19.3822C50.3432 19.4046 50.3432 19.4271 50.3432 19.4495C50.3432 19.472 50.3432 19.4944 50.3432 19.5169C50.3432 20.5272 50.6126 21.4589 51.1514 22.3121C51.7015 23.1652 52.4199 23.8444 53.3068 24.3495C54.2048 24.8547 55.1758 25.1073 56.2198 25.1073C57.9486 25.1073 59.3686 24.4955 60.48 23.2719C61.6026 22.037 62.1638 20.2185 62.1638 17.8162C62.1638 15.4026 61.6082 13.5841 60.4968 12.3605C59.3855 11.1369 57.9598 10.5251 56.2198 10.5251C55.1758 10.5251 54.2048 10.7777 53.3068 11.2828C52.4199 11.788 51.7015 12.4615 51.1514 13.3034C50.6126 14.1454 50.3432 15.0771 50.3432 16.0986L48.794 16.0481C48.794 14.6337 49.1476 13.3652 49.8549 12.2426C50.5733 11.12 51.5163 10.2388 52.6837 9.59896C53.8512 8.94786 55.1197 8.62232 56.4892 8.62232C57.9374 8.62232 59.2508 8.98154 60.4295 9.69999C61.6194 10.4072 62.5623 11.4456 63.2583 12.8151C63.9543 14.1847 64.3023 15.8517 64.3023 17.8162C64.3023 19.8031 63.9543 21.487 63.2583 22.8677C62.5736 24.2485 61.6418 25.2981 60.4631 26.0165C59.2844 26.7238 57.9598 27.0774 56.4892 27.0774ZM48.2384 26.7574V0.438782H50.3432V26.7574H48.2384Z" fill="#5D335A"/>
<path d="M69.6249 18.6918V16.8227H84.106L83.7019 17.3952C83.7019 17.3279 83.7019 17.2717 83.7019 17.2268C83.7019 17.1707 83.7019 17.1146 83.7019 17.0584C83.7019 15.9022 83.455 14.8245 82.961 13.8254C82.4671 12.8263 81.7487 12.0237 80.8057 11.4175C79.874 10.8113 78.7346 10.5082 77.3875 10.5082C76.0179 10.5082 74.8112 10.8226 73.7672 11.4512C72.7232 12.0686 71.9093 12.9274 71.3256 14.0275C70.7419 15.1164 70.45 16.3849 70.45 17.833C70.45 19.2924 70.7362 20.5777 71.3088 21.689C71.8925 22.7892 72.7064 23.6479 73.7503 24.2653C74.7943 24.8715 76.0123 25.1746 77.4043 25.1746C78.4258 25.1746 79.3127 25.0511 80.0648 24.8042C80.8281 24.546 81.4568 24.2092 81.9507 23.7939C82.4559 23.3785 82.8375 22.9407 83.0957 22.4805C83.3652 22.009 83.5223 21.5656 83.5672 21.1502H85.6384C85.5935 21.8125 85.3802 22.4917 84.9985 23.1877C84.6281 23.8724 84.0948 24.5123 83.3988 25.1073C82.7141 25.7022 81.8609 26.1849 80.8394 26.5554C79.8291 26.9146 78.6616 27.0942 77.337 27.0942C75.6082 27.0942 74.0703 26.7013 72.7232 25.9155C71.3873 25.1297 70.3321 24.0464 69.5575 22.6657C68.7942 21.2737 68.4125 19.674 68.4125 17.8667C68.4125 16.0481 68.7998 14.4485 69.5744 13.0677C70.349 11.6757 71.4098 10.5868 72.7569 9.80102C74.104 9.01522 75.6363 8.62232 77.3538 8.62232C79.105 8.62232 80.6205 9.02083 81.9002 9.81786C83.1799 10.6149 84.1678 11.6982 84.8638 13.0677C85.5598 14.426 85.9078 15.9527 85.9078 17.6478C85.9078 17.7937 85.9022 17.9789 85.8909 18.2035C85.8909 18.428 85.8853 18.5907 85.8741 18.6918H69.6249Z" fill="#5D335A"/>
<path d="M95.5682 26.7574L92.1331 1.92058H99.1211L101.276 25.6966L100.317 25.6461L103.802 1.92058H112.104L115.572 25.6461L114.613 25.6966L116.768 1.92058H123.756L120.321 26.7574H109.931L107.625 6.33228H108.298L105.974 26.7574H95.5682Z" fill="#FAB4EB"/>
<path d="M131.573 27.1616C130.293 27.1616 129.148 26.9595 128.138 26.5554C127.127 26.14 126.33 25.5451 125.747 24.7705C125.163 23.9847 124.871 23.0305 124.871 21.9079C124.871 20.5833 125.247 19.5169 125.999 18.7086C126.762 17.9004 127.734 17.2886 128.912 16.8732C130.102 16.4579 131.331 16.1941 132.6 16.0818C134.407 15.9134 135.625 15.7675 136.254 15.644C136.882 15.5205 137.197 15.3016 137.197 14.9873C137.197 14.9761 137.197 14.9705 137.197 14.9705C137.197 14.5551 136.944 14.2015 136.439 13.9096C135.945 13.6065 135.283 13.455 134.452 13.455C133.554 13.455 132.886 13.6234 132.448 13.9601C132.011 14.2857 131.792 14.7628 131.792 15.3914H125.107C125.107 13.8872 125.528 12.6243 126.37 11.6027C127.212 10.5812 128.34 9.81224 129.754 9.29586C131.18 8.76825 132.763 8.50445 134.503 8.50445C136.153 8.50445 137.696 8.75141 139.133 9.24535C140.581 9.73928 141.754 10.497 142.652 11.5186C143.551 12.5289 144 13.8254 144 15.4083C144 15.644 144 15.8797 144 16.1155C144 16.3512 144 16.587 144 16.8227V22.3626C144 22.8565 144.011 23.3336 144.033 23.7939C144.056 24.2541 144.123 24.6807 144.235 25.0736C144.359 25.4889 144.522 25.8482 144.724 26.1513C144.926 26.4431 145.088 26.6452 145.212 26.7574H138.578C138.477 26.6564 138.331 26.4712 138.14 26.2018C137.949 25.9324 137.792 25.6236 137.668 25.2757C137.5 24.7705 137.376 24.299 137.298 23.8612C137.23 23.4122 137.197 22.8677 137.197 22.2279L138.679 23.255C138.375 24.0745 137.859 24.7761 137.129 25.3598C136.411 25.9436 135.563 26.3926 134.587 26.7069C133.621 27.01 132.617 27.1616 131.573 27.1616ZM133.593 22.3457C134.177 22.3457 134.75 22.2166 135.311 21.9585C135.883 21.7003 136.36 21.2737 136.742 20.6787C137.124 20.0725 137.315 19.2531 137.315 18.2203V17.5804L139.049 18.978C138.308 19.2362 137.483 19.4551 136.574 19.6347C135.664 19.8031 134.794 19.9322 133.964 20.022C133.189 20.1006 132.611 20.2297 132.229 20.4093C131.859 20.5777 131.674 20.8527 131.674 21.2344C131.674 21.6161 131.842 21.8967 132.179 22.0763C132.516 22.2559 132.987 22.3457 133.593 22.3457Z" fill="#FAB4EB"/>
<path d="M154.141 0.438782V26.7574H147.456V0.438782H154.141Z" fill="#FAB4EB"/>
<path d="M164.533 0.438782V26.7574H157.848V0.438782H164.533Z" fill="#FAB4EB"/>
<path d="M170.716 19.6684V15.6272H181.257L180.752 16.5028C180.752 16.413 180.752 16.3175 180.752 16.2165C180.752 16.1043 180.752 16.0088 180.752 15.9303C180.752 15.5486 180.64 15.1557 180.415 14.7516C180.202 14.3362 179.848 13.9882 179.354 13.7076C178.872 13.4269 178.22 13.2866 177.401 13.2866C176.604 13.2866 175.936 13.455 175.397 13.7918C174.858 14.1285 174.454 14.6281 174.185 15.2904C173.915 15.9415 173.781 16.7385 173.781 17.6815C173.781 18.6693 173.91 19.5113 174.168 20.2072C174.426 20.9032 174.836 21.4365 175.397 21.8069C175.958 22.1661 176.694 22.3457 177.603 22.3457C178.142 22.3457 178.602 22.3065 178.984 22.2279C179.365 22.1493 179.669 22.0483 179.893 21.9248C180.129 21.8013 180.303 21.6666 180.415 21.5207C180.539 21.3747 180.611 21.2344 180.634 21.0997H187.336C187.257 21.8855 186.971 22.6432 186.477 23.3729C185.994 24.1026 185.326 24.7593 184.473 25.343C183.62 25.9155 182.593 26.3702 181.392 26.7069C180.191 27.0325 178.832 27.1952 177.317 27.1952C175.218 27.1952 173.399 26.8023 171.861 26.0165C170.323 25.2195 169.139 24.1194 168.308 22.7162C167.477 21.3018 167.062 19.6796 167.062 17.8498C167.062 15.9752 167.489 14.3362 168.342 12.933C169.195 11.5298 170.39 10.4409 171.928 9.66631C173.478 8.89174 175.274 8.50445 177.317 8.50445C179.427 8.50445 181.246 8.90296 182.772 9.69999C184.31 10.4858 185.495 11.6084 186.325 13.0677C187.156 14.5158 187.571 16.239 187.571 18.2371C187.571 18.5739 187.566 18.8602 187.555 19.0959C187.543 19.3316 187.527 19.5225 187.504 19.6684H170.716Z" fill="#FAB4EB"/>
<path d="M199.958 27.1952C199.183 27.1952 198.364 27.1335 197.499 27.01C196.646 26.8978 195.844 26.6564 195.091 26.286C194.339 25.9155 193.727 25.3598 193.256 24.6189C192.785 23.8668 192.549 22.8621 192.549 21.6048C192.549 21.3467 192.549 21.0885 192.549 20.8303C192.549 20.5721 192.549 20.3195 192.549 20.0725V13.9265H188.558V8.8749H188.642C189.518 8.8749 190.214 8.83561 190.73 8.75703C191.258 8.67845 191.651 8.48761 191.909 8.18452C192.167 7.88142 192.336 7.40433 192.414 6.75324C192.504 6.10215 192.549 5.20409 192.549 4.05907V3.01508H199.352V8.8749H204.285V13.9265H199.352V18.8602C199.352 19.0285 199.352 19.1969 199.352 19.3653C199.352 19.5225 199.352 19.6853 199.352 19.8536C199.352 20.5047 199.43 21.0548 199.587 21.5038C199.744 21.9528 200.165 22.1774 200.85 22.1774C201.254 22.1774 201.636 22.1381 201.995 22.0595C202.354 21.9809 202.624 21.9023 202.803 21.8237V26.7238C202.545 26.836 202.169 26.9427 201.675 27.0437C201.193 27.1447 200.62 27.1952 199.958 27.1952Z" fill="#FAB4EB"/>
</svg>
