<svg width="56" height="56" viewBox="0 0 56 56" fill="none" xmlns="http://www.w3.org/2000/svg">
<path d="M4.96759 15.958C4.96759 9.75823 9.99351 4.7323 16.1933 4.7323H44.2575C50.4573 4.7323 55.4833 9.75822 55.4833 15.958V44.0223C55.4833 50.222 50.4573 55.248 44.2576 55.248H16.1933C9.99352 55.248 4.96759 50.222 4.96759 44.0223V15.958Z" fill="#FAB4EB"/>
<path d="M18.9998 15.958L55.4833 32.7965V44.0222C55.4833 50.222 50.4574 55.2479 44.2576 55.2479H37.2415L18.9998 15.958Z" fill="#003BE5" fill-opacity="0.34"/>
<path d="M10.9586 25.3211L26.3262 9.9535L50.7278 34.3551L35.3602 49.7227L10.9586 25.3211Z" fill="white"/>
<path d="M1.66614 52.9392C2.10624 53.3793 2.69642 53.5657 3.26595 53.5035C3.26595 53.5035 14.0139 53.5657 20.1231 47.705C20.2008 47.6377 20.2732 47.5653 20.3456 47.4927C22.5615 45.2769 22.5563 41.689 20.3456 39.4783C18.1349 37.2676 14.5471 37.2625 12.3313 39.4783L1.66614 50.1435C0.894733 50.915 0.894733 52.1678 1.66614 52.9392Z" fill="white"/>
<path d="M11.5273 48.401C11.6722 49.379 11.0926 50.7916 9.94561 51.999C9.59546 52.3612 9.23324 52.6752 8.85895 52.9166" fill="white"/>
<path d="M6.48039 51.5885C6.38379 52.2887 6.04572 52.9287 5.51447 53.3875L6.48039 51.5885Z" fill="white"/>
<path d="M28.3432 15.5327C29.4409 14.435 29.4409 12.6553 28.3432 11.5576C27.2455 10.46 25.4658 10.46 24.3682 11.5576C23.2705 12.6553 23.2705 14.435 24.3682 15.5327C25.4658 16.6304 27.2456 16.6304 28.3432 15.5327Z" fill="#2FC18C"/>
<path d="M49.652 36.3127C50.7496 35.215 50.7496 33.4353 49.652 32.3376C48.5543 31.2399 46.7746 31.2399 45.6769 32.3376C44.5792 33.4353 44.5792 35.215 45.6769 36.3127C46.7746 37.4103 48.5543 37.4103 49.652 36.3127Z" fill="#2FC18C"/>
<path d="M16.1372 27.7385C17.2349 26.6408 17.2349 24.8611 16.1372 23.7634C15.0396 22.6657 13.2599 22.6657 12.1622 23.7634C11.0645 24.8611 11.0645 26.6408 12.1622 27.7385C13.2599 28.8362 15.0396 28.8362 16.1372 27.7385Z" fill="#2FC18C"/>
<path d="M36.9777 48.579C38.0754 47.4813 38.0754 45.7016 36.9777 44.6039C35.88 43.5062 34.1003 43.5062 33.0026 44.6039C31.9049 45.7016 31.9049 47.4813 33.0026 48.579C34.1003 49.6767 35.88 49.6767 36.9777 48.579Z" fill="#2FC18C"/>
<path d="M49.9704 33.7778L48.5446 35.2036L25.2123 11.8712L26.638 10.4455L49.9704 33.7778Z" fill="#2FC18C"/>
<path d="M35.7896 47.3898L34.3638 48.8156L11.0315 25.4832L12.4573 24.0575L35.7896 47.3898Z" fill="#2FC18C"/>
<path d="M26.6503 9.86314L28.0927 11.3056L12.4733 26.925L11.0309 25.4826L26.6503 9.86314Z" fill="#2FC18C"/>
<path d="M49.3885 32.601L50.8309 34.0434L35.2115 49.6628L33.769 48.2204L49.3885 32.601Z" fill="#2FC18C"/>
<path d="M38.7109 37.5444C41.4183 34.837 40.067 29.0962 35.6927 24.722C31.3185 20.3477 25.5777 18.9964 22.8704 21.7038C20.163 24.4111 21.5143 30.1519 25.8886 34.5262C30.2628 38.9004 36.0036 40.2517 38.7109 37.5444Z" fill="#2FC18C"/>
<path d="M42.9827 26.549L27.4435 42.0881C27.3876 42.144 27.3262 42.1841 27.2591 42.2188C26.986 42.3522 26.6345 42.2954 26.3981 42.0591L18.1566 33.8176C17.9202 33.5812 17.8633 33.2297 17.9969 32.9566C18.0316 32.8897 18.0717 32.8281 18.1276 32.7722L33.6666 17.2329C33.7225 17.177 33.7841 17.1369 33.851 17.1022C34.1241 16.9688 34.4756 17.0257 34.712 17.2619L42.9535 25.5035C43.19 25.7399 43.2468 26.0914 43.1133 26.3645C43.0786 26.4315 43.0386 26.4931 42.9827 26.549Z" fill="#2FC18C"/>
<path fill-rule="evenodd" clip-rule="evenodd" d="M18.1276 32.7722C18.0717 32.8281 18.0316 32.8897 17.9969 32.9566C17.8633 33.2297 17.9202 33.5812 18.1566 33.8176L26.3981 42.0591C26.6345 42.2954 26.986 42.3522 27.2591 42.2188C27.3262 42.1841 27.3876 42.144 27.4435 42.0881L42.9827 26.549C43.0386 26.4931 43.0786 26.4315 43.1133 26.3645C43.2468 26.0914 43.19 25.7399 42.9535 25.5035L34.712 17.2619C34.4756 17.0257 34.1241 16.9688 33.851 17.1022C33.7841 17.1369 33.7225 17.177 33.6666 17.2329L18.1276 32.7722ZM34.1748 19.503L20.3976 33.2804L26.9353 39.8181L40.7126 26.0408L34.1748 19.503Z" fill="#036B52"/>
<path d="M53.8337 0.771612C54.2738 1.21171 54.4602 1.80189 54.3981 2.37142C54.3981 2.37142 54.4602 13.1194 48.5995 19.2286C48.5323 19.3062 48.4597 19.3787 48.3872 19.4512C46.1714 21.6671 42.5835 21.6619 40.3729 19.4512C38.1621 17.2405 38.157 13.6527 40.3729 11.4368L51.038 0.771733C51.8095 0.000201941 53.0623 0.000201821 53.8337 0.771612Z" fill="white"/>
<path d="M49.2953 10.6329C50.2733 10.7778 51.686 10.1982 52.8934 9.0512C53.2556 8.70105 53.5696 8.33883 53.811 7.96454" fill="white"/>
<path d="M52.4829 5.58592C53.1832 5.48933 53.8231 5.15125 54.2819 4.62L52.4829 5.58592Z" fill="white"/>
<path fill-rule="evenodd" clip-rule="evenodd" d="M11.5622 38.7093C14.2034 36.0681 18.4798 36.0745 21.1147 38.7093C23.7494 41.344 23.7559 45.6206 21.1147 48.2618L21.1088 48.2677C21.0453 48.3312 20.9572 48.4196 20.8578 48.5073C17.5893 51.6326 13.15 53.1343 9.62485 53.8669C7.84463 54.2368 6.26311 54.4175 5.12506 54.506C4.55537 54.5503 4.09503 54.5716 3.77435 54.5818C3.61397 54.5869 3.48838 54.5893 3.40137 54.5903C3.36858 54.5907 3.34125 54.5909 3.3196 54.591C2.45525 54.6669 1.56286 54.374 0.897104 53.7082C-0.299068 52.5121 -0.298981 50.5707 0.897044 49.3745L11.5622 38.7093ZM3.27224 52.416L3.27534 52.416L3.29373 52.416C3.311 52.4159 3.33822 52.4158 3.37492 52.4153C3.44834 52.4144 3.55963 52.4124 3.70507 52.4077C3.99603 52.3985 4.4231 52.3788 4.95649 52.3374C6.0246 52.2543 7.51188 52.0843 9.1823 51.7372C12.5518 51.037 16.5312 49.6437 19.3702 46.9202L19.3901 46.901L19.411 46.8829C19.4542 46.8456 19.4996 46.8009 19.576 46.7243C21.3664 44.9339 21.3632 42.0339 19.5766 40.2474C17.7899 38.4607 14.8908 38.4569 13.1003 40.2474L2.43524 50.9124C2.43522 50.9125 2.43526 50.9124 2.43524 50.9124C2.08851 51.2593 2.08855 51.8235 2.43518 52.1702C2.63308 52.3681 2.89309 52.4502 3.14791 52.4224L3.20989 52.4156L3.27224 52.416Z" fill="#5D335A"/>
<path fill-rule="evenodd" clip-rule="evenodd" d="M39.9807 11.5622C37.3395 14.2034 37.3459 18.4798 39.9807 21.1147C42.6154 23.7494 46.892 23.7559 49.5332 21.1147L49.5391 21.1088C49.6026 21.0453 49.691 20.9572 49.7787 20.8578C52.904 17.5893 54.4057 13.15 55.1383 9.62485C55.5082 7.84463 55.6889 6.26311 55.7774 5.12506C55.8217 4.55537 55.843 4.09503 55.8532 3.77435C55.8583 3.61397 55.8607 3.48838 55.8617 3.40137C55.8621 3.36858 55.8623 3.34125 55.8625 3.3196C55.9383 2.45525 55.6454 1.56286 54.9797 0.897105C53.7835 -0.299067 51.8421 -0.298981 50.6459 0.897044L39.9807 11.5622ZM53.6874 3.27224L53.6874 3.27534L53.6874 3.29373C53.6873 3.311 53.6872 3.33822 53.6867 3.37492C53.6858 3.44834 53.6838 3.55963 53.6791 3.70507C53.6699 3.99604 53.6502 4.4231 53.6088 4.95649C53.5258 6.0246 53.3557 7.51188 53.0086 9.1823C52.3084 12.5518 50.9151 16.5312 48.1916 19.3702L48.1724 19.3901L48.1543 19.411C48.117 19.4542 48.0723 19.4996 47.9957 19.576C46.2053 21.3664 43.3053 21.3632 41.5188 19.5766C39.7321 17.7899 39.7283 14.8908 41.5188 13.1003L52.1838 2.43524C52.1839 2.43522 52.1838 2.43526 52.1838 2.43524C52.5307 2.08851 53.0949 2.08855 53.4416 2.43518C53.6395 2.63308 53.7216 2.8931 53.6938 3.14791L53.687 3.20989L53.6874 3.27224Z" fill="#5D335A"/>
<path fill-rule="evenodd" clip-rule="evenodd" d="M4.8178 52.5944C5.24249 52.1696 5.93111 52.1695 6.35588 52.5942L6.36835 52.6067C6.79312 53.0314 6.79318 53.72 6.3685 54.1448C5.94381 54.5695 5.25519 54.5696 4.83042 54.1449L4.81795 54.1324C4.39318 53.7078 4.39311 53.0191 4.8178 52.5944Z" fill="#5D335A"/>
<path fill-rule="evenodd" clip-rule="evenodd" d="M11.3679 47.3251C11.9621 47.2371 12.5151 47.6474 12.6032 48.2416C12.7149 48.9957 12.539 49.8041 12.2196 50.5447C11.894 51.2995 11.3874 52.0604 10.7341 52.7481L10.7276 52.7549L10.7276 52.7549C10.3379 53.158 9.91196 53.5316 9.44857 53.8305C8.94384 54.1562 8.27069 54.011 7.94506 53.5062C7.61943 53.0015 7.76462 52.3284 8.26935 52.0027C8.55353 51.8194 8.85092 51.5662 9.16036 51.2465C9.65246 50.7278 10.008 50.18 10.2223 49.6832C10.4432 49.1711 10.4846 48.7842 10.4515 48.5603C10.3634 47.9662 10.7738 47.4131 11.3679 47.3251Z" fill="#5D335A"/>
<path fill-rule="evenodd" clip-rule="evenodd" d="M6.62895 50.5111C7.22397 50.5931 7.6398 51.142 7.55773 51.7371C7.42646 52.6888 6.96451 53.5722 6.22529 54.2106C5.7707 54.6032 5.08391 54.5529 4.69131 54.0984C4.29871 53.6438 4.34896 52.957 4.80355 52.5644C5.12685 52.2852 5.34105 51.8887 5.40296 51.4398C5.48503 50.8448 6.03393 50.429 6.62895 50.5111Z" fill="#5D335A"/>
<path fill-rule="evenodd" clip-rule="evenodd" d="M26.3971 11.8242C26.3504 11.7775 26.2745 11.7775 26.2277 11.8242L12.6536 25.3984C12.6068 25.4451 12.6068 25.521 12.6536 25.5678L11.8846 26.3368L12.6536 25.5678L35.1266 48.041C35.1734 48.0877 35.2493 48.0877 35.2961 48.041L48.8702 34.4667C48.9169 34.42 48.9169 34.344 48.8702 34.2973L26.3971 11.8242ZM24.6896 10.2862C25.5859 9.38994 27.039 9.38994 27.9352 10.2862L50.4083 32.7592C51.3045 33.6554 51.3045 35.1086 50.4083 36.0048L36.8342 49.579C35.9379 50.4753 34.4848 50.4753 33.5886 49.579L11.1155 27.1059C10.2193 26.2096 10.2193 24.7565 11.1155 23.8603L24.6896 10.2862Z" fill="#5D335A"/>
<path fill-rule="evenodd" clip-rule="evenodd" d="M53.4887 3.92339C53.9134 3.49866 54.6021 3.49866 55.0268 3.92339L55.0393 3.93586C55.464 4.36059 55.464 5.04921 55.0393 5.47394C54.6145 5.89866 53.9259 5.89866 53.5012 5.47394L53.4887 5.46147C53.064 5.03674 53.064 4.34812 53.4887 3.92339Z" fill="#5D335A"/>
<path fill-rule="evenodd" clip-rule="evenodd" d="M54.4006 7.05065C54.9053 7.37629 55.0505 8.04943 54.7248 8.55416C54.4259 9.01755 54.0523 9.4435 53.6492 9.83317L53.6424 9.83974L53.6424 9.83971C52.9547 10.493 52.1938 10.9996 51.439 11.3252C50.6984 11.6446 49.89 11.8205 49.1359 11.7088C48.5417 11.6207 48.1314 11.0677 48.2194 10.4735C48.3074 9.87935 48.8605 9.46904 49.4546 9.55707C49.6785 9.59023 50.0654 9.54877 50.5775 9.32788C51.0743 9.11362 51.6221 8.75805 52.1408 8.26595C52.4606 7.95651 52.7137 7.65912 52.897 7.37494C53.2227 6.87021 53.8958 6.72502 54.4006 7.05065Z" fill="#5D335A"/>
<path fill-rule="evenodd" clip-rule="evenodd" d="M54.9927 3.79689C55.4473 4.18949 55.4975 4.87627 55.1049 5.33087C54.4665 6.07009 53.5831 6.53204 52.6314 6.66331C52.0364 6.74538 51.4875 6.32955 51.4054 5.73453C51.3233 5.1395 51.7392 4.59061 52.3342 4.50854C52.7831 4.44662 53.1795 4.23242 53.4587 3.90913C53.8513 3.45454 54.5381 3.40429 54.9927 3.79689Z" fill="#5D335A"/>
</svg>
