<svg width="24" height="24" viewBox="0 0 24 24" fill="none" xmlns="http://www.w3.org/2000/svg">
<path d="M18.6667 0H0V20C0 22.2091 1.79093 24 4 24H20C22.2091 24 24 22.2091 24 20V5.33333H18.6667V0ZM4 22C2.89733 22 2 21.1027 2 20V2H16.6667V5.33333V7.33333V20C16.6667 20.7509 16.9192 21.4421 17.3397 22H4ZM22 7.33333V20C22 21.1027 21.1029 22 20 22C18.8971 22 18 21.1029 18 20H20V18.6667H18V17.3333H20V16H18V14.6667H20V13.3333H18V12H20V10.6667H18V7.33333H18.6667H22Z" fill="#5D335A"/>
<path d="M4 14.6667H14.6667V16H4V14.6667Z" fill="#5D335A"/>
<path d="M4 17.3333H14.6667V18.6667H4V17.3333Z" fill="#5D335A"/>
<path d="M11.9994 9.38284C11.9968 9.68192 11.9129 9.97517 11.756 10.2335C11.599 10.4919 11.3745 10.7065 11.1045 10.856C10.8037 11.0387 10.4706 11.1671 10.1216 11.2348V11.8931C10.1241 11.9719 10.1102 12.0504 10.0805 12.1239C10.0509 12.1974 10.0061 12.2645 9.94896 12.3211C9.89179 12.3777 9.82336 12.4227 9.74772 12.4534C9.67208 12.4842 9.59077 12.5 9.50863 12.5C9.42649 12.5 9.34519 12.4842 9.26955 12.4534C9.19391 12.4227 9.12547 12.3777 9.0683 12.3211C9.01113 12.2645 8.96639 12.1974 8.93674 12.1239C8.90709 12.0504 8.89313 11.9719 8.89569 11.8931V11.2411L8.85818 11.2348C8.64071 11.1948 8.42833 11.1326 8.2247 11.0491C7.92218 10.9289 7.65441 10.7403 7.44415 10.4994C7.39149 10.441 7.35133 10.3733 7.32596 10.3C7.30059 10.2267 7.2905 10.1493 7.29628 10.0723C7.30206 9.9953 7.32359 9.92013 7.35963 9.8511C7.39568 9.78206 7.44554 9.72052 7.50637 9.66998C7.5672 9.61944 7.6378 9.5809 7.71416 9.55654C7.79051 9.53219 7.87111 9.52251 7.95135 9.52806C8.0316 9.5336 8.10993 9.55426 8.18185 9.58886C8.25378 9.62346 8.31791 9.67131 8.37056 9.72969C8.45349 9.82788 8.55963 9.90565 8.68016 9.95655L8.68135 9.95712C8.80544 10.0091 8.9347 10.049 9.06716 10.076H9.06835C9.20493 10.1013 9.3432 10.1173 9.48214 10.124C9.81874 10.1235 10.1489 10.0357 10.4377 9.86969C10.7354 9.68398 10.7735 9.51255 10.7735 9.38341C10.7724 9.2469 10.7207 9.11522 10.6276 9.01199C10.5343 8.91076 10.4236 8.82571 10.3002 8.76056C10.1752 8.69847 10.0423 8.65236 9.90486 8.62342C9.7776 8.59783 9.64788 8.58519 9.51786 8.58571C9.31683 8.58658 9.11609 8.57129 8.91772 8.53999C8.65148 8.49779 8.39324 8.41787 8.15146 8.30285C7.87162 8.16813 7.62484 7.97783 7.42748 7.74457C7.15579 7.43045 7.00486 7.03624 7 6.62802C7.00082 6.36327 7.06628 6.10239 7.19112 5.86631C7.36261 5.55146 7.62059 5.28765 7.93713 5.10346C8.23187 4.92931 8.55671 4.8072 8.89628 4.74289V4.1069C8.89373 4.0281 8.90769 3.94962 8.93734 3.8761C8.96699 3.80258 9.01173 3.73553 9.0689 3.67892C9.12607 3.62231 9.1945 3.57731 9.27014 3.54657C9.34579 3.51584 9.42709 3.5 9.50923 3.5C9.59137 3.5 9.67267 3.51584 9.74831 3.54657C9.82395 3.57731 9.89239 3.62231 9.94956 3.67892C10.0067 3.73553 10.0515 3.80258 10.0811 3.8761C10.1108 3.94962 10.1247 4.0281 10.1222 4.1069V4.76061L10.1597 4.76861H10.1609C10.3813 4.81716 10.5958 4.88764 10.8009 4.97889C11.0569 5.08977 11.2901 5.24361 11.4898 5.43317C11.5975 5.54469 11.6561 5.6919 11.6532 5.84394C11.6503 5.99599 11.5863 6.14107 11.4744 6.24878C11.3626 6.3565 11.2116 6.41848 11.0532 6.42175C10.8948 6.42502 10.7412 6.36931 10.6247 6.26631C10.5297 6.1768 10.4191 6.10407 10.2978 6.05145C10.1701 5.99412 10.0366 5.94932 9.8995 5.91774L9.8602 5.90974C9.75133 5.8826 9.64015 5.86481 9.52798 5.8566C9.19905 5.85446 8.87564 5.93779 8.59205 6.09774C8.48746 6.14697 8.39842 6.22204 8.33407 6.31524C8.26972 6.40843 8.23238 6.51639 8.22589 6.62802C8.23216 6.76535 8.28577 6.8968 8.3783 7.00173L8.3795 7.00344C8.46726 7.10565 8.57611 7.1893 8.69921 7.24915L8.7004 7.25029C8.83275 7.31226 8.97372 7.35556 9.11896 7.37886H9.12015C9.25161 7.39959 9.38464 7.40972 9.51786 7.40915C9.73534 7.40846 9.95228 7.42991 10.165 7.47315L10.1668 7.47372C10.4116 7.52531 10.6482 7.60753 10.8706 7.71829L10.8729 7.71943C11.129 7.85202 11.3585 8.02733 11.5505 8.23714L11.5517 8.23828C11.8402 8.55532 11.9989 8.96188 11.9994 9.38284Z" fill="#5D335A"/>
</svg>
