<svg width="26" height="26" viewBox="0 0 26 26" fill="none" xmlns="http://www.w3.org/2000/svg">
<path d="M13.3758 0.289894C10.0276 0.289894 6.81657 1.61994 4.44906 3.98745C2.08156 6.35495 0.751509 9.56598 0.751509 12.9141C0.751955 13.3452 0.775367 13.776 0.821643 14.2046C1.14986 17.3054 2.61399 20.175 4.93195 22.2605C7.24991 24.3461 10.2577 25.5 13.3758 25.5C16.4938 25.5 19.5016 24.3461 21.8196 22.2605C24.1375 20.175 25.6016 17.3054 25.9299 14.2046C25.9761 13.776 25.9996 13.3452 26 12.9141C26 9.56598 24.6699 6.35495 22.3024 3.98745C19.9349 1.61994 16.7239 0.289894 13.3758 0.289894ZM20.9784 19.114C20.9643 19.114 20.8942 19.2263 20.8802 19.2263C19.9619 20.324 18.814 21.2069 17.5173 21.8128C16.2207 22.4186 14.8069 22.7326 13.3758 22.7326C11.9446 22.7326 10.5308 22.4186 9.23418 21.8128C7.93754 21.2069 6.78961 20.324 5.87134 19.2263C5.85731 19.2263 5.78718 19.114 5.77315 19.114C5.69613 19.0023 5.65235 18.871 5.64691 18.7353C5.64953 18.5882 5.69643 18.4452 5.7815 18.3251C5.86658 18.205 5.98587 18.1133 6.12383 18.062C4.74765 18.6241 8.25939 17.3046 8.25939 17.3046L8.31882 17.2899L8.79457 17.1222L9.87899 16.7899L10.8649 16.477C10.8499 16.0937 10.7593 15.7171 10.5984 15.3689V15.3548C10.4481 14.9586 10.235 14.5892 9.96721 14.2607C9.23367 13.3038 8.84337 12.1279 8.85908 10.9223C8.7815 9.6825 9.19363 8.46176 10.0068 7.52267C10.82 6.58358 11.9693 6.00115 13.2074 5.90067H13.5441C14.7822 6.00115 15.9315 6.58358 16.7447 7.52267C17.5579 8.46176 17.97 9.6825 17.8924 10.9223C17.9081 12.1279 17.5178 13.3038 16.7843 14.2607C16.5165 14.5892 16.3034 14.9586 16.1531 15.3548V15.3689C15.9922 15.7171 15.9016 16.0937 15.8866 16.477L16.7515 16.7899L17.8924 17.1222L18.2515 17.2899L18.3132 17.3046C18.5938 17.3747 19.5897 17.7114 20.6277 18.062C20.7305 18.095 20.8241 18.1518 20.901 18.2277C20.9778 18.3037 21.0356 18.3967 21.0697 18.4991C21.1039 18.6016 21.1134 18.7107 21.0975 18.8175C21.0817 18.9243 21.0408 19.0259 20.9784 19.114Z" fill="#FAB4EB"/>
</svg>
